ffmpeg version 6.1.1-3ubuntu5+esm2 Copyright (c) 2000-2023 the FFmpeg developers
  built with gcc 13 (Ubuntu 13.2.0-23ubuntu4)
  configuration: --prefix=/usr --extra-version=3ubuntu5+esm2 --toolchain=hardened --libdir=/usr/lib/x86_64-linux-gnu --incdir=/usr/include/x86_64-linux-gnu --arch=amd64 --enable-gpl --disable-stripping --disable-omx --enable-gnutls --enable-libaom --enable-libass --enable-libbs2b --enable-libcaca --enable-libcdio --enable-libcodec2 --enable-libdav1d --enable-libflite --enable-libfontconfig --enable-libfreetype --enable-libfribidi --enable-libglslang --enable-libgme --enable-libgsm --enable-libharfbuzz --enable-libmp3lame --enable-libmysofa --enable-libopenjpeg --enable-libopenmpt --enable-libopus --enable-librubberband --enable-libshine --enable-libsnappy --enable-libsoxr --enable-libspeex --enable-libtheora --enable-libtwolame --enable-libvidstab --enable-libvorbis --enable-libvpx --enable-libwebp --enable-libx265 --enable-libxml2 --enable-libxvid --enable-libzimg --enable-openal --enable-opencl --enable-opengl --disable-sndio --enable-libvpl --disable-libmfx --enable-libdc1394 --enable-libdrm --enable-libiec61883 --enable-chromaprint --enable-frei0r --enable-ladspa --enable-libbluray --enable-libjack --enable-libpulse --enable-librabbitmq --enable-librist --enable-libsrt --enable-libssh --enable-libsvtav1 --enable-libx264 --enable-libzmq --enable-libzvbi --enable-lv2 --enable-sdl2 --enable-libplacebo --enable-librav1e --enable-pocketsphinx --enable-librsvg --enable-libjxl --enable-shared
  libavutil      58. 29.100 / 58. 29.100
  libavcodec     60. 31.102 / 60. 31.102
  libavformat    60. 16.100 / 60. 16.100
  libavdevice    60.  3.100 / 60.  3.100
  libavfilter     9. 12.100 /  9. 12.100
  libswscale      7.  5.100 /  7.  5.100
  libswresample   4. 12.100 /  4. 12.100
  libpostproc    57.  3.100 / 57.  3.100
-vsync is deprecated. Use -fps_mode
Input #0, image2, from 'video-application/all_frames/frame_%04d.jpg':
  Duration: 00:00:04.76, start: 0.000000, bitrate: N/A
  Stream #0:0: Video: mjpeg (Baseline), yuvj420p(pc, bt470bg/unknown/unknown), 1920x1080 [SAR 1:1 DAR 16:9], 25 fps, 25 tbr, 25 tbn
Stream mapping:
  Stream #0:0 -> #0:0 (mjpeg (native) -> mjpeg (native))
Press [q] to stop, [?] for help
[Parsed_showinfo_1 @ 0x5c4babe52ec0] config in time_base: 1/25, frame_rate: 25/1
[Parsed_showinfo_1 @ 0x5c4babe52ec0] config out time_base: 0/0, frame_rate: 0/0
[Parsed_showinfo_1 @ 0x5c4babe52ec0] n:   0 pts:      0 pts_time:0       duration:      1 duration_time:0.04    fmt:yuvj420p cl:center sar:1/1 s:1920x1080 i:P iskey:1 type:I checksum:2C4279B0 plane_checksum:[4289F19F 4C8E0A26 DDBD7DDC] mean:[34 121 138] stdev:[48.8 16.8 16.3]
[Parsed_showinfo_1 @ 0x5c4babe52ec0] color_range:pc color_space:bt470bg color_primaries:unknown color_trc:unknown
Output #0, image2, to 'video-application/temp_frames/frame_%04d.jpg':
  Metadata:
    encoder         : Lavf60.16.100
  Stream #0:0: Video: mjpeg, yuvj420p(pc, bt470bg/unknown/unknown, progressive), 1920x1080 [SAR 1:1 DAR 16:9], q=2-31, 200 kb/s, 25 fps, 25 tbn
    Metadata:
      encoder         : Lavc60.31.102 mjpeg
    Side data:
      cpb: bitrate max/min/avg: 0/0/200000 buffer size: 0 vbv_delay: N/A
frame=    0 fps=0.0 q=9.5 size=       0kB time=00:00:00.00 bitrate=N/A speed=   0x    [Parsed_showinfo_1 @ 0x5c4babe52ec0] n:   1 pts:      5 pts_time:0.2     duration:      1 duration_time:0.04    fmt:yuvj420p cl:center sar:1/1 s:1920x1080 i:P iskey:1 type:I checksum:9A059905 plane_checksum:[6A6F52B3 D1E1349B 640D11B7] mean:[35 121 138] stdev:[49.3 16.7 16.2]
[Parsed_showinfo_1 @ 0x5c4babe52ec0] color_range:pc color_space:bt470bg color_primaries:unknown color_trc:unknown
[Parsed_showinfo_1 @ 0x5c4babe52ec0] n:   2 pts:      6 pts_time:0.24    duration:      1 duration_time:0.04    fmt:yuvj420p cl:center sar:1/1 s:1920x1080 i:P iskey:1 type:I checksum:317526C6 plane_checksum:[2B6F16C0 C1DC163B AADDF9BC] mean:[34 121 138] stdev:[48.9 16.6 16.1]
[Parsed_showinfo_1 @ 0x5c4babe52ec0] color_range:pc color_space:bt470bg color_primaries:unknown color_trc:unknown
[Parsed_showinfo_1 @ 0x5c4babe52ec0] n:   3 pts:      7 pts_time:0.28    duration:      1 duration_time:0.04    fmt:yuvj420p cl:center sar:1/1 s:1920x1080 i:P iskey:1 type:I checksum:499AE738 plane_checksum:[A7486D70 A2464D82 67662C46] mean:[35 121 138] stdev:[49.2 16.5 16.1]
[Parsed_showinfo_1 @ 0x5c4babe52ec0] color_range:pc color_space:bt470bg color_primaries:unknown color_trc:unknown
[Parsed_showinfo_1 @ 0x5c4babe52ec0] n:   4 pts:      9 pts_time:0.36    duration:      1 duration_time:0.04    fmt:yuvj420p cl:center sar:1/1 s:1920x1080 i:P iskey:1 type:I checksum:54E12D4C plane_checksum:[470C4A10 CEE3A77D 09123BB0] mean:[34 121 138] stdev:[49.3 16.5 15.9]
[Parsed_showinfo_1 @ 0x5c4babe52ec0] color_range:pc color_space:bt470bg color_primaries:unknown color_trc:unknown
[Parsed_showinfo_1 @ 0x5c4babe52ec0] n:   5 pts:     12 pts_time:0.48    duration:      1 duration_time:0.04    fmt:yuvj420p cl:center sar:1/1 s:1920x1080 i:P iskey:1 type:I checksum:2F0E91B6 plane_checksum:[F809D6CA F449FE33 2544BC9B] mean:[32 120 139] stdev:[47.5 16.8 16.2]
[Parsed_showinfo_1 @ 0x5c4babe52ec0] color_range:pc color_space:bt470bg color_primaries:unknown color_trc:unknown
[Parsed_showinfo_1 @ 0x5c4babe52ec0] n:   6 pts:     13 pts_time:0.52    duration:      1 duration_time:0.04    fmt:yuvj420p cl:center sar:1/1 s:1920x1080 i:P iskey:1 type:I checksum:CCA8036C plane_checksum:[C4259FC4 9C2325E9 DE523DB0] mean:[32 120 139] stdev:[47.7 16.7 16.2]
[Parsed_showinfo_1 @ 0x5c4babe52ec0] color_range:pc color_space:bt470bg color_primaries:unknown color_trc:unknown
[Parsed_showinfo_1 @ 0x5c4babe52ec0] n:   7 pts:     14 pts_time:0.56    duration:      1 duration_time:0.04    fmt:yuvj420p cl:center sar:1/1 s:1920x1080 i:P iskey:1 type:I checksum:0D3E571B plane_checksum:[9759F4EF C3E53691 45CC2B8C] mean:[33 120 139] stdev:[48.6 16.6 16.1]
[Parsed_showinfo_1 @ 0x5c4babe52ec0] color_range:pc color_space:bt470bg color_primaries:unknown color_trc:unknown
[Parsed_showinfo_1 @ 0x5c4babe52ec0] n:   8 pts:     17 pts_time:0.68    duration:      1 duration_time:0.04    fmt:yuvj420p cl:center sar:1/1 s:1920x1080 i:P iskey:1 type:I checksum:ED20A4F9 plane_checksum:[A93CF572 EFBDEFEC 37A2BF7D] mean:[32 120 139] stdev:[48.0 16.6 16.1]
[Parsed_showinfo_1 @ 0x5c4babe52ec0] color_range:pc color_space:bt470bg color_primaries:unknown color_trc:unknown
[Parsed_showinfo_1 @ 0x5c4babe52ec0] n:   9 pts:     18 pts_time:0.72    duration:      1 duration_time:0.04    fmt:yuvj420p cl:center sar:1/1 s:1920x1080 i:P iskey:1 type:I checksum:E753E4BD plane_checksum:[FAF099B6 19DF44DA AC85062D] mean:[32 120 139] stdev:[48.3 16.7 16.2]
[Parsed_showinfo_1 @ 0x5c4babe52ec0] color_range:pc color_space:bt470bg color_primaries:unknown color_trc:unknown
[Parsed_showinfo_1 @ 0x5c4babe52ec0] n:  10 pts:     20 pts_time:0.8     duration:      1 duration_time:0.04    fmt:yuvj420p cl:center sar:1/1 s:1920x1080 i:P iskey:1 type:I checksum:06CD485E plane_checksum:[B038E733 7B33175F 5B6849BD] mean:[33 120 139] stdev:[48.5 16.8 16.4]
[Parsed_showinfo_1 @ 0x5c4babe52ec0] color_range:pc color_space:bt470bg color_primaries:unknown color_trc:unknown
[Parsed_showinfo_1 @ 0x5c4babe52ec0] n:  11 pts:     21 pts_time:0.84    duration:      1 duration_time:0.04    fmt:yuvj420p cl:center sar:1/1 s:1920x1080 i:P iskey:1 type:I checksum:D05BA14F plane_checksum:[10AB3595 1CBAEB82 3ADB8029] mean:[33 120 139] stdev:[48.2 16.8 16.5]
[Parsed_showinfo_1 @ 0x5c4babe52ec0] color_range:pc color_space:bt470bg color_primaries:unknown color_trc:unknown
[Parsed_showinfo_1 @ 0x5c4babe52ec0] n:  12 pts:     22 pts_time:0.88    duration:      1 duration_time:0.04    fmt:yuvj420p cl:center sar:1/1 s:1920x1080 i:P iskey:1 type:I checksum:E62C2835 plane_checksum:[8179B398 D042971A A986DD65] mean:[32 120 139] stdev:[48.1 16.7 16.5]
[Parsed_showinfo_1 @ 0x5c4babe52ec0] color_range:pc color_space:bt470bg color_primaries:unknown color_trc:unknown
[Parsed_showinfo_1 @ 0x5c4babe52ec0] n:  13 pts:     25 pts_time:1       duration:      1 duration_time:0.04    fmt:yuvj420p cl:center sar:1/1 s:1920x1080 i:P iskey:1 type:I checksum:E308C2E6 plane_checksum:[B6141B55 140BB854 1F6FEF2E] mean:[32 120 139] stdev:[47.9 16.7 16.4]
[Parsed_showinfo_1 @ 0x5c4babe52ec0] color_range:pc color_space:bt470bg color_primaries:unknown color_trc:unknown
[Parsed_showinfo_1 @ 0x5c4babe52ec0] n:  14 pts:     27 pts_time:1.08    duration:      1 duration_time:0.04    fmt:yuvj420p cl:center sar:1/1 s:1920x1080 i:P iskey:1 type:I checksum:AD94A186 plane_checksum:[853315FE 2847FC46 96568F33] mean:[33 120 139] stdev:[48.5 16.6 16.3]
[Parsed_showinfo_1 @ 0x5c4babe52ec0] color_range:pc color_space:bt470bg color_primaries:unknown color_trc:unknown
[Parsed_showinfo_1 @ 0x5c4babe52ec0] n:  15 pts:     29 pts_time:1.16    duration:      1 duration_time:0.04    fmt:yuvj420p cl:center sar:1/1 s:1920x1080 i:P iskey:1 type:I checksum:88A35AF4 plane_checksum:[10C56FDF A7DE511F 55F299E7] mean:[34 121 139] stdev:[48.9 16.5 16.1]
[Parsed_showinfo_1 @ 0x5c4babe52ec0] color_range:pc color_space:bt470bg color_primaries:unknown color_trc:unknown
[Parsed_showinfo_1 @ 0x5c4babe52ec0] n:  16 pts:     31 pts_time:1.24    duration:      1 duration_time:0.04    fmt:yuvj420p cl:center sar:1/1 s:1920x1080 i:P iskey:1 type:I checksum:C58F79C7 plane_checksum:[6BEDA223 D5BF57D3 B7457FC2] mean:[34 121 139] stdev:[49.3 16.5 16.1]
[Parsed_showinfo_1 @ 0x5c4babe52ec0] color_range:pc color_space:bt470bg color_primaries:unknown color_trc:unknown
[Parsed_showinfo_1 @ 0x5c4babe52ec0] n:  17 pts:     35 pts_time:1.4     duration:      1 duration_time:0.04    fmt:yuvj420p cl:center sar:1/1 s:1920x1080 i:P iskey:1 type:I checksum:2CBBEDEA plane_checksum:[28926576 C6A10CD0 1E3B7BA4] mean:[33 120 139] stdev:[49.4 16.5 16.1]
[Parsed_showinfo_1 @ 0x5c4babe52ec0] color_range:pc color_space:bt470bg color_primaries:unknown color_trc:unknown
[Parsed_showinfo_1 @ 0x5c4babe52ec0] n:  18 pts:     39 pts_time:1.56    duration:      1 duration_time:0.04    fmt:yuvj420p cl:center sar:1/1 s:1920x1080 i:P iskey:1 type:I checksum:8972474F plane_checksum:[4D2F0C6C 71B31E95 E3981C4E] mean:[33 120 139] stdev:[49.5 16.6 16.2]
[Parsed_showinfo_1 @ 0x5c4babe52ec0] color_range:pc color_space:bt470bg color_primaries:unknown color_trc:unknown
[Parsed_showinfo_1 @ 0x5c4babe52ec0] n:  19 pts:     40 pts_time:1.6     duration:      1 duration_time:0.04    fmt:yuvj420p cl:center sar:1/1 s:1920x1080 i:P iskey:1 type:I checksum:E25D1F2B plane_checksum:[C40E8FC2 7C825852 9FB83708] mean:[33 120 139] stdev:[49.6 16.5 16.1]
[Parsed_showinfo_1 @ 0x5c4babe52ec0] color_range:pc color_space:bt470bg color_primaries:unknown color_trc:unknown
[Parsed_showinfo_1 @ 0x5c4babe52ec0] n:  20 pts:     43 pts_time:1.72    duration:      1 duration_time:0.04    fmt:yuvj420p cl:center sar:1/1 s:1920x1080 i:P iskey:1 type:I checksum:D7D148B9 plane_checksum:[AB412DB0 4CD35C19 B03FBEE1] mean:[31 120 139] stdev:[47.6 16.8 16.6]
[Parsed_showinfo_1 @ 0x5c4babe52ec0] color_range:pc color_space:bt470bg color_primaries:unknown color_trc:unknown
[Parsed_showinfo_1 @ 0x5c4babe52ec0] n:  21 pts:     53 pts_time:2.12    duration:      1 duration_time:0.04    fmt:yuvj420p cl:center sar:1/1 s:1920x1080 i:P iskey:1 type:I checksum:6A3F0875 plane_checksum:[49B588EC 36077442 676C0B38] mean:[32 119 140] stdev:[48.2 17.1 17.0]
[Parsed_showinfo_1 @ 0x5c4babe52ec0] color_range:pc color_space:bt470bg color_primaries:unknown color_trc:unknown
[Parsed_showinfo_1 @ 0x5c4babe52ec0] n:  22 pts:     57 pts_time:2.28    duration:      1 duration_time:0.04    fmt:yuvj420p cl:center sar:1/1 s:1920x1080 i:P iskey:1 type:I checksum:BAEE1450 plane_checksum:[4D18ACBE CD56A5F8 F16BC17C] mean:[33 119 140] stdev:[48.8 17.2 17.2]
[Parsed_showinfo_1 @ 0x5c4babe52ec0] color_range:pc color_space:bt470bg color_primaries:unknown color_trc:unknown
frame=   23 fps=0.0 q=24.8 size=N/A time=00:00:02.28 bitrate=N/A speed=4.54x    [Parsed_showinfo_1 @ 0x5c4babe52ec0] n:  23 pts:     60 pts_time:2.4     duration:      1 duration_time:0.04    fmt:yuvj420p cl:center sar:1/1 s:1920x1080 i:P iskey:1 type:I checksum:DD7784A2 plane_checksum:[7996BFD2 A951F92D 2333CB85] mean:[33 119 140] stdev:[48.7 17.4 17.3]
[Parsed_showinfo_1 @ 0x5c4babe52ec0] color_range:pc color_space:bt470bg color_primaries:unknown color_trc:unknown
[Parsed_showinfo_1 @ 0x5c4babe52ec0] n:  24 pts:     61 pts_time:2.44    duration:      1 duration_time:0.04    fmt:yuvj420p cl:center sar:1/1 s:1920x1080 i:P iskey:1 type:I checksum:819D3E93 plane_checksum:[384BB46B 62A5BF5F A9F9CAAB] mean:[34 120 140] stdev:[49.3 17.4 17.3]
[Parsed_showinfo_1 @ 0x5c4babe52ec0] color_range:pc color_space:bt470bg color_primaries:unknown color_trc:unknown
[Parsed_showinfo_1 @ 0x5c4babe52ec0] n:  25 pts:     62 pts_time:2.48    duration:      1 duration_time:0.04    fmt:yuvj420p cl:center sar:1/1 s:1920x1080 i:P iskey:1 type:I checksum:ECB6E3AB plane_checksum:[A3176F9F 74BBF290 6563816D] mean:[34 120 140] stdev:[49.3 17.6 17.4]
[Parsed_showinfo_1 @ 0x5c4babe52ec0] color_range:pc color_space:bt470bg color_primaries:unknown color_trc:unknown
[Parsed_showinfo_1 @ 0x5c4babe52ec0] n:  26 pts:     63 pts_time:2.52    duration:      1 duration_time:0.04    fmt:yuvj420p cl:center sar:1/1 s:1920x1080 i:P iskey:1 type:I checksum:7C19EC5F plane_checksum:[D38DC887 E1FCB42B 723F6F9E] mean:[34 120 140] stdev:[49.3 17.6 17.3]
[Parsed_showinfo_1 @ 0x5c4babe52ec0] color_range:pc color_space:bt470bg color_primaries:unknown color_trc:unknown
[Parsed_showinfo_1 @ 0x5c4babe52ec0] n:  27 pts:     64 pts_time:2.56    duration:      1 duration_time:0.04    fmt:yuvj420p cl:center sar:1/1 s:1920x1080 i:P iskey:1 type:I checksum:34152835 plane_checksum:[18E05004 6AC4CEAA AF2A0978] mean:[34 120 140] stdev:[49.3 17.7 17.3]
[Parsed_showinfo_1 @ 0x5c4babe52ec0] color_range:pc color_space:bt470bg color_primaries:unknown color_trc:unknown
[Parsed_showinfo_1 @ 0x5c4babe52ec0] n:  28 pts:     65 pts_time:2.6     duration:      1 duration_time:0.04    fmt:yuvj420p cl:center sar:1/1 s:1920x1080 i:P iskey:1 type:I checksum:B7C5DB75 plane_checksum:[D5BD9690 CAA3C103 286E83D3] mean:[34 120 140] stdev:[49.1 17.7 17.3]
[Parsed_showinfo_1 @ 0x5c4babe52ec0] color_range:pc color_space:bt470bg color_primaries:unknown color_trc:unknown
[Parsed_showinfo_1 @ 0x5c4babe52ec0] n:  29 pts:     68 pts_time:2.72    duration:      1 duration_time:0.04    fmt:yuvj420p cl:center sar:1/1 s:1920x1080 i:P iskey:1 type:I checksum:189F0938 plane_checksum:[7F0F6992 CA1D8E97 9FC91100] mean:[33 120 140] stdev:[48.7 17.7 17.2]
[Parsed_showinfo_1 @ 0x5c4babe52ec0] color_range:pc color_space:bt470bg color_primaries:unknown color_trc:unknown
[Parsed_showinfo_1 @ 0x5c4babe52ec0] n:  30 pts:     70 pts_time:2.8     duration:      1 duration_time:0.04    fmt:yuvj420p cl:center sar:1/1 s:1920x1080 i:P iskey:1 type:I checksum:D31E15DC plane_checksum:[4D6A20ED 88E5ABBA 25254926] mean:[33 119 140] stdev:[48.6 17.8 17.4]
[Parsed_showinfo_1 @ 0x5c4babe52ec0] color_range:pc color_space:bt470bg color_primaries:unknown color_trc:unknown
[Parsed_showinfo_1 @ 0x5c4babe52ec0] n:  31 pts:     71 pts_time:2.84    duration:      1 duration_time:0.04    fmt:yuvj420p cl:center sar:1/1 s:1920x1080 i:P iskey:1 type:I checksum:DEE31DDF plane_checksum:[9A643226 8B26B962 EAF43248] mean:[34 119 140] stdev:[48.9 17.8 17.3]
[Parsed_showinfo_1 @ 0x5c4babe52ec0] color_range:pc color_space:bt470bg color_primaries:unknown color_trc:unknown
[Parsed_showinfo_1 @ 0x5c4babe52ec0] n:  32 pts:     72 pts_time:2.88    duration:      1 duration_time:0.04    fmt:yuvj420p cl:center sar:1/1 s:1920x1080 i:P iskey:1 type:I checksum:D4208446 plane_checksum:[69BE0E47 B78BBF64 79CBB68C] mean:[34 119 140] stdev:[49.3 17.9 17.4]
[Parsed_showinfo_1 @ 0x5c4babe52ec0] color_range:pc color_space:bt470bg color_primaries:unknown color_trc:unknown
[Parsed_showinfo_1 @ 0x5c4babe52ec0] n:  33 pts:     79 pts_time:3.16    duration:      1 duration_time:0.04    fmt:yuvj420p cl:center sar:1/1 s:1920x1080 i:P iskey:1 type:I checksum:D2D48A59 plane_checksum:[9C6F0959 DA4CCE95 4D3DB25C] mean:[33 119 140] stdev:[48.5 18.2 18.0]
[Parsed_showinfo_1 @ 0x5c4babe52ec0] color_range:pc color_space:bt470bg color_primaries:unknown color_trc:unknown
[Parsed_showinfo_1 @ 0x5c4babe52ec0] n:  34 pts:     80 pts_time:3.2     duration:      1 duration_time:0.04    fmt:yuvj420p cl:center sar:1/1 s:1920x1080 i:P iskey:1 type:I checksum:8A20C730 plane_checksum:[ECF1B04B AC1AA4F1 261F71E5] mean:[33 119 140] stdev:[49.0 18.3 18.0]
[Parsed_showinfo_1 @ 0x5c4babe52ec0] color_range:pc color_space:bt470bg color_primaries:unknown color_trc:unknown
[Parsed_showinfo_1 @ 0x5c4babe52ec0] n:  35 pts:     81 pts_time:3.24    duration:      1 duration_time:0.04    fmt:yuvj420p cl:center sar:1/1 s:1920x1080 i:P iskey:1 type:I checksum:1707786E plane_checksum:[8E0B2C70 219F515B C96AFA94] mean:[33 119 140] stdev:[49.1 18.6 18.0]
[Parsed_showinfo_1 @ 0x5c4babe52ec0] color_range:pc color_space:bt470bg color_primaries:unknown color_trc:unknown
[Parsed_showinfo_1 @ 0x5c4babe52ec0] n:  36 pts:     84 pts_time:3.36    duration:      1 duration_time:0.04    fmt:yuvj420p cl:center sar:1/1 s:1920x1080 i:P iskey:1 type:I checksum:206C5791 plane_checksum:[8E4D93AD CB72BAC6 243D090F] mean:[33 119 141] stdev:[48.4 18.6 18.2]
[Parsed_showinfo_1 @ 0x5c4babe52ec0] color_range:pc color_space:bt470bg color_primaries:unknown color_trc:unknown
[Parsed_showinfo_1 @ 0x5c4babe52ec0] n:  37 pts:     87 pts_time:3.48    duration:      1 duration_time:0.04    fmt:yuvj420p cl:center sar:1/1 s:1920x1080 i:P iskey:1 type:I checksum:04D6471F plane_checksum:[0E666548 344C4346 E4149E82] mean:[33 118 141] stdev:[49.5 18.8 18.3]
[Parsed_showinfo_1 @ 0x5c4babe52ec0] color_range:pc color_space:bt470bg color_primaries:unknown color_trc:unknown
[Parsed_showinfo_1 @ 0x5c4babe52ec0] n:  38 pts:     88 pts_time:3.52    duration:      1 duration_time:0.04    fmt:yuvj420p cl:center sar:1/1 s:1920x1080 i:P iskey:1 type:I checksum:E0344E9A plane_checksum:[2D4F85A2 ABC56C55 A6585C94] mean:[33 118 141] stdev:[49.0 18.8 18.4]
[Parsed_showinfo_1 @ 0x5c4babe52ec0] color_range:pc color_space:bt470bg color_primaries:unknown color_trc:unknown
[Parsed_showinfo_1 @ 0x5c4babe52ec0] n:  39 pts:     92 pts_time:3.68    duration:      1 duration_time:0.04    fmt:yuvj420p cl:center sar:1/1 s:1920x1080 i:P iskey:1 type:I checksum:2782C69D plane_checksum:[07FC52D2 D48D592B C3541AA0] mean:[35 118 141] stdev:[50.0 19.2 18.7]
[Parsed_showinfo_1 @ 0x5c4babe52ec0] color_range:pc color_space:bt470bg color_primaries:unknown color_trc:unknown
[Parsed_showinfo_1 @ 0x5c4babe52ec0] n:  40 pts:     95 pts_time:3.8     duration:      1 duration_time:0.04    fmt:yuvj420p cl:center sar:1/1 s:1920x1080 i:P iskey:1 type:I checksum:8483F5A2 plane_checksum:[D7B62F91 F985D964 DB07EC9E] mean:[36 118 141] stdev:[50.9 19.2 18.7]
[Parsed_showinfo_1 @ 0x5c4babe52ec0] color_range:pc color_space:bt470bg color_primaries:unknown color_trc:unknown
[Parsed_showinfo_1 @ 0x5c4babe52ec0] n:  41 pts:     96 pts_time:3.84    duration:      1 duration_time:0.04    fmt:yuvj420p cl:center sar:1/1 s:1920x1080 i:P iskey:1 type:I checksum:997E0419 plane_checksum:[B0FEFA64 085ECCEF 273A3CA8] mean:[36 118 141] stdev:[50.8 19.2 18.7]
[Parsed_showinfo_1 @ 0x5c4babe52ec0] color_range:pc color_space:bt470bg color_primaries:unknown color_trc:unknown
[Parsed_showinfo_1 @ 0x5c4babe52ec0] n:  42 pts:     97 pts_time:3.88    duration:      1 duration_time:0.04    fmt:yuvj420p cl:center sar:1/1 s:1920x1080 i:P iskey:1 type:I checksum:517806F8 plane_checksum:[ADE0BF3D F0D25DEE 2F07E9AF] mean:[35 118 141] stdev:[50.6 19.3 18.7]
[Parsed_showinfo_1 @ 0x5c4babe52ec0] color_range:pc color_space:bt470bg color_primaries:unknown color_trc:unknown
[Parsed_showinfo_1 @ 0x5c4babe52ec0] n:  43 pts:     98 pts_time:3.92    duration:      1 duration_time:0.04    fmt:yuvj420p cl:center sar:1/1 s:1920x1080 i:P iskey:1 type:I checksum:C54D01AD plane_checksum:[8B90D599 2243EDE0 633E3E16] mean:[35 118 141] stdev:[50.5 19.3 18.9]
[Parsed_showinfo_1 @ 0x5c4babe52ec0] color_range:pc color_space:bt470bg color_primaries:unknown color_trc:unknown
[Parsed_showinfo_1 @ 0x5c4babe52ec0] n:  44 pts:     99 pts_time:3.96    duration:      1 duration_time:0.04    fmt:yuvj420p cl:center sar:1/1 s:1920x1080 i:P iskey:1 type:I checksum:62D025AF plane_checksum:[460F3210 10A9244F C52ECF41] mean:[36 118 141] stdev:[50.9 19.5 19.0]
[Parsed_showinfo_1 @ 0x5c4babe52ec0] color_range:pc color_space:bt470bg color_primaries:unknown color_trc:unknown
[Parsed_showinfo_1 @ 0x5c4babe52ec0] n:  45 pts:    102 pts_time:4.08    duration:      1 duration_time:0.04    fmt:yuvj420p cl:center sar:1/1 s:1920x1080 i:P iskey:1 type:I checksum:4A29B694 plane_checksum:[1FDD4A8D 4708811D D9CFEADB] mean:[35 118 141] stdev:[50.6 19.6 18.8]
[Parsed_showinfo_1 @ 0x5c4babe52ec0] color_range:pc color_space:bt470bg color_primaries:unknown color_trc:unknown
[Parsed_showinfo_1 @ 0x5c4babe52ec0] n:  46 pts:    104 pts_time:4.16    duration:      1 duration_time:0.04    fmt:yuvj420p cl:center sar:1/1 s:1920x1080 i:P iskey:1 type:I checksum:96C56CF6 plane_checksum:[2F50A2BE 873977D2 71A95257] mean:[35 118 141] stdev:[50.6 19.6 18.9]
[Parsed_showinfo_1 @ 0x5c4babe52ec0] color_range:pc color_space:bt470bg color_primaries:unknown color_trc:unknown
[Parsed_showinfo_1 @ 0x5c4babe52ec0] n:  47 pts:    107 pts_time:4.28    duration:      1 duration_time:0.04    fmt:yuvj420p cl:center sar:1/1 s:1920x1080 i:P iskey:1 type:I checksum:7E508489 plane_checksum:[AB738116 659D18D8 9507EA8C] mean:[34 118 141] stdev:[49.7 19.6 18.9]
[Parsed_showinfo_1 @ 0x5c4babe52ec0] color_range:pc color_space:bt470bg color_primaries:unknown color_trc:unknown
[Parsed_showinfo_1 @ 0x5c4babe52ec0] n:  48 pts:    109 pts_time:4.36    duration:      1 duration_time:0.04    fmt:yuvj420p cl:center sar:1/1 s:1920x1080 i:P iskey:1 type:I checksum:4547179C plane_checksum:[2466E2B5 D3D99D7D D85A974C] mean:[35 118 141] stdev:[50.5 19.5 18.7]
[Parsed_showinfo_1 @ 0x5c4babe52ec0] color_range:pc color_space:bt470bg color_primaries:unknown color_trc:unknown
[Parsed_showinfo_1 @ 0x5c4babe52ec0] n:  49 pts:    110 pts_time:4.4     duration:      1 duration_time:0.04    fmt:yuvj420p cl:center sar:1/1 s:1920x1080 i:P iskey:1 type:I checksum:14431795 plane_checksum:[6D65C992 DBB9FABD DFFF5328] mean:[35 118 141] stdev:[50.5 19.5 18.6]
[Parsed_showinfo_1 @ 0x5c4babe52ec0] color_range:pc color_space:bt470bg color_primaries:unknown color_trc:unknown
[Parsed_showinfo_1 @ 0x5c4babe52ec0] n:  50 pts:    111 pts_time:4.44    duration:      1 duration_time:0.04    fmt:yuvj420p cl:center sar:1/1 s:1920x1080 i:P iskey:1 type:I checksum:9494CEC3 plane_checksum:[4EB872E8 CFA56AB8 AAC8F114] mean:[35 118 141] stdev:[50.2 19.5 18.7]
[Parsed_showinfo_1 @ 0x5c4babe52ec0] color_range:pc color_space:bt470bg color_primaries:unknown color_trc:unknown
[Parsed_showinfo_1 @ 0x5c4babe52ec0] n:  51 pts:    113 pts_time:4.52    duration:      1 duration_time:0.04    fmt:yuvj420p cl:center sar:1/1 s:1920x1080 i:P iskey:1 type:I checksum:535A7CDD plane_checksum:[12510BAD 8271486A F51B28C6] mean:[35 118 141] stdev:[50.4 19.5 18.9]
[Parsed_showinfo_1 @ 0x5c4babe52ec0] color_range:pc color_space:bt470bg color_primaries:unknown color_trc:unknown
[Parsed_showinfo_1 @ 0x5c4babe52ec0] n:  52 pts:    114 pts_time:4.56    duration:      1 duration_time:0.04    fmt:yuvj420p cl:center sar:1/1 s:1920x1080 i:P iskey:1 type:I checksum:02118A9A plane_checksum:[2E7A697E BA69966C E58F8AA1] mean:[34 118 141] stdev:[49.7 19.5 19.0]
[Parsed_showinfo_1 @ 0x5c4babe52ec0] color_range:pc color_space:bt470bg color_primaries:unknown color_trc:unknown
[out#0/image2 @ 0x5c4babe4d280] video:4422kB audio:0kB subtitle:0kB other streams:0kB global headers:0kB muxing overhead: unknown
frame=   53 fps=0.0 q=24.8 Lsize=N/A time=00:00:04.56 bitrate=N/A speed=4.71x    
